PathFileType	4	(X/Y/Z)	SUBJ62_0_static_RCNL2025.trc
DataRate	CameraRate	NumFrames	NumMarkers	Units	OrigDataRate	OrigDataStartFrame	OrigNumFrames
100	100	5	25	mm	100	71	85
Frame#	Time	R_Shoulder			L_Shoulder			C7			J_Notch			R_Elbow			L_Elbow			R_Wrist			L_Wrist			R_Asis			L_Asis			Sacral			Thoracic			Sternum			R_Thigh_Lateral			R_Knee_Lateral			R_Shank_Lateral			R_Ankle_Lateral			R_Heel			R_Toe			L_Thigh_Lateral			L_Knee_Lateral			L_Shank_Lateral			L_Ankle_Lateral			L_Heel			L_Toe		
		X1	Y1	Z1	X2	Y2	Z2	X3	Y3	Z3	X4	Y4	Z4	X5	Y5	Z5	X6	Y6	Z6	X7	Y7	Z7	X8	Y8	Z8	X9	Y9	Z9	X10	Y10	Z10	X11	Y11	Z11	X12	Y12	Z12	X13	Y13	Z13	X14	Y14	Z14	X15	Y15	Z15	X16	Y16	Z16	X17	Y17	Z17	X18	Y18	Z18	X19	Y19	Z19	X20	Y20	Z20	X21	Y21	Z21	X22	Y22	Z22	X23	Y23	Z23	X24	Y24	Z24	X25	Y25	Z25
71	0.70000000	-297.438141	1299.441284	-69.815475	-306.608887	1301.391724	-407.756653	-368.202515	1359.145630	-241.817413	-234.947342	1275.852661	-244.292435	-358.429199	1014.282898	13.228701	-327.777588	1014.686584	-506.765900	-293.237900	802.348846	23.031797	-274.209625	802.057251	-510.102814	-240.701279	877.892761	-96.679192	-234.819489	866.495483	-356.412018	-411.589447	884.656799	-233.426880	-421.952759	1162.307739	-239.606903	-213.099121	1077.016602	-240.592575	-351.018555	500.356995	-17.651760	-355.424652	437.673401	-89.912025	-375.068604	260.342224	-47.414047	-373.345612	65.053452	-119.823952	-418.441467	47.263191	-166.003983	-267.359283	47.961174	-123.007065	-356.426636	479.881256	-409.107544	-378.435028	416.900848	-360.144592	-380.129700	224.076370	-394.720764	-370.207672	54.991283	-326.086639	-420.698669	51.328739	-274.808258	-259.567352	39.145130	-328.953979
72	0.71000000	-297.556183	1299.392456	-69.758987	-306.607178	1301.397217	-407.773926	-368.279114	1359.153687	-241.768036	-234.852158	1275.911865	-244.217224	-358.479431	1014.333008	13.247480	-327.936218	1014.626770	-506.733307	-293.254868	802.400238	23.023361	-274.195282	802.115143	-510.119339	-240.717407	877.885376	-96.670288	-234.795624	866.501648	-356.429840	-411.599152	884.594543	-233.397491	-421.970978	1162.287109	-239.584015	-213.136002	1076.985962	-240.544647	-350.971832	500.363068	-17.585466	-355.423920	437.649353	-89.914337	-375.089386	260.356598	-47.383480	-373.333099	65.039070	-119.814095	-418.426788	47.267967	-166.004044	-267.370270	47.930470	-123.017624	-356.499359	479.895203	-408.989990	-378.455292	416.904785	-360.128265	-380.080780	224.064438	-394.736084	-370.125183	54.883575	-326.074921	-420.637451	51.324142	-275.026550	-259.585144	39.184818	-328.929596
73	0.72000000	-297.575592	1299.411011	-69.744408	-306.719330	1301.359985	-407.721527	-368.286957	1359.164551	-241.762100	-234.935181	1275.885864	-244.231705	-358.583435	1014.274841	13.351935	-327.949829	1014.630127	-506.727386	-293.268066	802.422546	23.038985	-274.265717	802.107513	-510.126968	-240.716751	877.884338	-96.647713	-234.796692	866.518372	-356.437012	-411.617340	884.600891	-233.373520	-422.058563	1162.273071	-239.508255	-213.090973	1077.085938	-240.556274	-351.005157	500.361267	-17.654085	-355.435425	437.642731	-89.900108	-375.124695	260.290985	-47.387917	-373.411591	64.994049	-119.759773	-418.606445	47.270012	-165.960251	-267.403503	47.970543	-122.964249	-356.494507	479.948120	-408.978424	-378.452606	416.906067	-360.127625	-380.139648	224.078278	-394.694672	-370.130646	54.862896	-325.985443	-420.672760	51.409573	-274.995667	-259.606476	39.228592	-328.952301
74	0.73000000	-297.569763	1299.404297	-69.758194	-306.755188	1301.396118	-407.677856	-368.327026	1359.074829	-241.698868	-234.999237	1275.921387	-244.246658	-358.512146	1014.269592	13.418433	-327.959534	1014.699585	-506.755951	-293.328934	802.406830	23.110728	-274.272842	802.115509	-510.122894	-240.696167	877.917419	-96.712395	-234.813004	866.511536	-356.389404	-411.662445	884.529175	-233.334290	-422.062469	1162.201538	-239.501694	-213.059128	1077.121948	-240.556320	-351.072418	500.316437	-17.624912	-355.437714	437.634033	-89.906616	-375.162476	260.293304	-47.382923	-373.430298	65.000946	-119.751190	-418.558044	47.228867	-165.913010	-267.469666	47.934483	-122.930977	-356.548492	479.902863	-408.918091	-378.436188	416.915863	-360.106293	-380.049133	224.090149	-394.701202	-370.195221	54.998352	-326.022705	-420.636414	51.336861	-274.891693	-259.601318	39.153225	-328.923065
75	0.74000000	-297.583832	1299.401001	-69.743141	-306.755585	1301.400391	-407.679932	-368.405121	1359.078491	-241.646881	-235.177551	1275.970459	-244.152405	-358.491577	1014.265503	13.412660	-327.943726	1014.637512	-506.734161	-293.263306	802.367950	23.161933	-274.276108	802.154938	-510.147247	-240.702301	877.865906	-96.666313	-234.898315	866.491150	-356.298767	-411.695160	884.611755	-233.326736	-422.060272	1162.260376	-239.508026	-213.057632	1077.126831	-240.603485	-351.085480	500.323608	-17.616920	-355.508301	437.637451	-89.864685	-375.204987	260.334381	-47.306190	-373.424194	65.020195	-119.749054	-418.579498	47.256653	-165.907043	-267.380096	47.965721	-122.993355	-356.450500	479.926941	-408.956879	-378.372070	416.944427	-360.156036	-380.092377	224.090530	-394.717102	-370.150574	54.920490	-325.996674	-420.601288	51.292011	-274.764557	-259.577637	39.203972	-328.943573
